<?xml version="1.0" encoding="utf-8"?>
<!-- Generator: Adobe Illustrator 24.3.0, SVG Export Plug-In . SVG Version: 6.00 Build 0)  -->
<svg version="1.1" xmlns="http://www.w3.org/2000/svg" xmlns:xlink="http://www.w3.org/1999/xlink" x="0px" y="0px"
	 viewBox="0 0 100 100" style="enable-background:new 0 0 100 100;" xml:space="preserve">
<style type="text/css">
	.st0{display:none;}
	.st1{display:inline;}
	.st2{fill:#452E99;}
	.st3{display:inline;fill:none;stroke:#DDDDDD;stroke-width:3.3436;stroke-miterlimit:10;}
	.st4{display:inline;fill:#DDDDDD;stroke:#DDDDDD;stroke-width:3.4311;stroke-miterlimit:10;}
	.st5{fill:none;stroke:#DDDDDD;stroke-width:3.4311;stroke-miterlimit:10;}
	.st6{display:inline;fill:none;stroke:#DDDDDD;stroke-width:3.4311;stroke-miterlimit:10;}
	.st7{fill:#DDDDDD;}
</style>
<g id="Lag_2" class="st0">
	<g class="st1">
		<rect x="0" class="st2" width="100" height="100"/>
	</g>
</g>
<g id="Sound_on" class="st0">
	<circle class="st3" cx="50" cy="50" r="47.8"/>
	<path class="st4" d="M42.2,32.7H18c-1.1,0-2,0.9-2,2v29.9c0,1.1,0.9,2,2,2h22.5c0.3,0,0.6,0.1,0.9,0.2l19.3,9.4
		c1.3,0.6,2.8-0.3,2.8-1.8V50V25.6c0-1.4-1.5-2.4-2.8-1.8L43,32.5C42.8,32.6,42.5,32.7,42.2,32.7z"/>
	<g class="st1">
		<path class="st5" d="M68.5,33.5c1,0.8,7.8,6.4,8,16c0.2,10.2-7.2,16.3-8,17"/>
	</g>
	<path class="st6" d="M68.5,22c0.7,0.4,16,9.8,16,28c0,0.8-0.3,18.8-16,28"/>
</g>
<g id="Sound_off">
	<g>
		<path class="st7" d="M50,5c24.8,0,45,20.2,45,45S74.8,95,50,95S5,74.8,5,50S25.2,5,50,5 M50,1C22.9,1,1,22.9,1,50s21.9,49,49,49
			s49-21.9,49-49S77.1,1,50,1L50,1z"/>
	</g>
	<g>
		<path class="st7" d="M61.4,74.7c0,0-0.1,0-0.1,0L42,65.2c-0.5-0.2-1-0.4-1.6-0.4H18c-0.2,0-0.3-0.1-0.3-0.3V34.6
			c0-0.2,0.1-0.3,0.3-0.3h24.2c0.5,0,1.1-0.1,1.6-0.4l17.6-8.6c0,0,0.1,0,0.1,0c0.1,0,0.3,0.1,0.3,0.3v48.7
			C61.7,74.6,61.5,74.7,61.4,74.7z"/>
		<g>
			<path class="st7" d="M60.1,27.8V50v22.2l-17.3-8.5c-0.7-0.4-1.5-0.5-2.3-0.5H19.3V36h22.8c0.8,0,1.6-0.2,2.3-0.5L60.1,27.8
				 M61.4,23.7c-0.3,0-0.6,0.1-0.9,0.2L43,32.5c-0.3,0.1-0.6,0.2-0.9,0.2H18c-1.1,0-2,0.9-2,2v29.9c0,1.1,0.9,2,2,2h22.5
				c0.3,0,0.6,0.1,0.9,0.2l19.3,9.4c0.3,0.1,0.6,0.2,0.9,0.2c1,0,2-0.8,2-2V50V25.6C63.4,24.5,62.5,23.7,61.4,23.7L61.4,23.7z"/>
		</g>
	</g>
	<g>
		<rect x="-12.7" y="47.8" transform="matrix(0.7071 -0.7071 0.7071 0.7071 -20.7107 50)" class="st7" width="125.4" height="4.5"/>
		<path class="st7" d="M92.7,6.5l0.8,0.8L7.3,93.5l-0.8-0.8L92.7,6.5 M92.7,1.7l-91,91l5.5,5.5l91-91L92.7,1.7L92.7,1.7z"/>
	</g>
</g>
</svg>
